<svg version="1.1" id="Layer_1" xmlns="http://www.w3.org/2000/svg" xmlns:xlink="http://www.w3.org/1999/xlink" x="0px" y="0px"
	 width="100%" viewBox="0 0 192 192" enable-background="new 0 0 192 192" xml:space="preserve">
<path fill="#051B24" opacity="1.000000" stroke="none"
	d="
M193.000000,70.000000
	C193.000000,110.969887 193.000000,151.939774 193.000000,192.954834
	C129.077133,192.954834 65.154236,192.954834 1.115666,192.954834
	C1.115666,129.124298 1.115666,65.248314 1.115666,1.000000
	C30.353178,1.000000 59.707932,1.000000 89.314735,1.275388
	C86.949158,2.242226 84.365845,3.297223 81.706642,3.548169
	C76.443672,4.044831 71.097549,4.611722 65.862503,4.192229
	C60.340149,3.749712 56.685287,7.464614 52.079262,8.956414
	C46.515240,10.758492 41.917065,13.705005 38.876968,18.883251
	C35.796017,24.131077 32.471497,29.236895 29.439581,34.511772
	C28.745604,35.719143 28.608604,37.358105 28.564442,38.809063
	C28.316523,46.954487 28.571495,55.136208 27.895189,63.242161
	C27.094856,72.834633 25.756048,82.400330 24.224133,91.908913
	C22.410019,103.169083 19.387318,114.280113 18.248787,125.592690
	C16.617796,141.798416 13.636307,158.752655 26.983843,172.117325
	C31.427929,176.567108 36.467747,181.091125 42.120003,183.534286
	C56.623814,189.803528 71.973976,188.975174 87.101685,185.804626
	C90.588142,185.073929 93.419067,181.567520 96.907608,180.432373
	C110.357178,176.055969 116.161636,164.456833 120.321434,153.096985
	C124.511894,141.653381 124.987366,139.535034 139.348297,138.355972
	C151.167618,137.385605 159.560944,130.591446 169.183929,125.713829
	C170.119064,125.239838 170.456848,123.505974 170.980820,122.316795
	C172.908859,117.941086 174.917374,113.595329 176.670181,109.149422
	C178.527542,104.438347 181.552658,99.624840 181.548630,94.858200
	C181.539825,84.472916 186.268097,76.933762 193.000000,70.000000
z"/>
<path fill="#061D26" opacity="1.000000" stroke="none"
	d="
M193.000000,69.536819
	C186.268097,76.933762 181.539825,84.472916 181.548630,94.858200
	C181.552658,99.624840 178.527542,104.438347 176.670181,109.149422
	C174.917374,113.595329 172.908859,117.941086 170.980820,122.316795
	C170.456848,123.505974 170.119064,125.239838 169.183929,125.713829
	C159.560944,130.591446 151.167618,137.385605 139.348297,138.355972
	C124.987366,139.535034 124.511894,141.653381 120.321434,153.096985
	C116.161636,164.456833 110.357178,176.055969 96.907608,180.432373
	C93.419067,181.567520 90.588142,185.073929 87.101685,185.804626
	C71.973976,188.975174 56.623814,189.803528 42.120003,183.534286
	C36.467747,181.091125 31.427929,176.567108 26.983843,172.117325
	C13.636307,158.752655 16.617796,141.798416 18.248787,125.592690
	C19.387318,114.280113 22.410019,103.169083 24.224133,91.908913
	C25.756048,82.400330 27.094856,72.834633 27.895189,63.242161
	C28.571495,55.136208 28.316523,46.954487 28.564442,38.809063
	C28.608604,37.358105 28.745604,35.719143 29.439581,34.511772
	C32.471497,29.236895 35.796017,24.131077 38.876968,18.883251
	C41.917065,13.705005 46.515240,10.758492 52.079262,8.956414
	C56.685287,7.464614 60.340149,3.749712 65.862503,4.192229
	C71.097549,4.611722 76.443672,4.044831 81.706642,3.548169
	C84.365845,3.297223 86.949158,2.242226 89.783394,1.275388
	C103.687561,1.000000 117.375122,1.000000 131.634491,1.329433
	C133.607498,2.585425 134.936462,4.140924 136.424454,4.311806
	C139.861374,4.706505 143.407700,4.735217 146.852310,4.370646
	C159.209290,3.062807 169.795944,8.508765 180.641174,12.967526
	C181.619659,13.369807 182.560333,14.424658 183.028992,15.409441
	C185.068451,19.694784 188.658279,21.810040 193.000000,23.000000
	C193.000000,26.361288 193.000000,29.722574 192.686111,33.411781
	C190.492676,31.488510 188.219284,29.457748 186.811523,26.942505
	C183.350906,20.759521 178.817825,15.775012 172.165512,13.232268
	C161.162369,9.026484 149.663315,7.337385 137.905792,7.318443
	C129.105927,7.304266 120.306015,7.302669 111.506218,7.269396
	C94.574516,7.205375 77.633675,6.732584 60.892532,10.212685
	C47.886723,12.916296 37.273453,25.550627 35.573917,36.354000
	C33.279808,50.936867 31.776394,65.642273 29.743557,80.268669
	C28.071253,92.301003 26.330019,104.331108 24.243509,116.296677
	C21.540581,131.797256 18.473845,147.233475 26.090551,162.284454
	C29.707464,169.431671 35.229977,174.645462 42.361427,178.189606
	C53.265736,183.608780 64.906212,183.697342 76.606743,182.532623
	C91.910873,181.009186 104.198715,174.272751 111.759850,160.445541
	C114.934975,154.639099 117.112411,148.273514 120.447823,142.574387
	C121.977631,139.960434 124.921349,137.706802 127.740601,136.437119
	C131.003326,134.967712 134.818466,134.670944 138.421860,134.020782
	C158.488876,130.400116 173.647232,118.502350 175.451736,96.534889
	C176.671112,81.690704 186.921890,71.003487 191.832260,57.908569
	C191.979813,57.515079 192.600113,57.298870 193.000000,57.000000
	C193.000000,61.024544 193.000000,65.049088 193.000000,69.536819
z"/>
<path fill="#061E27" opacity="1.000000" stroke="none"
	d="
M193.000000,56.531380
	C192.600113,57.298870 191.979813,57.515079 191.832260,57.908569
	C186.921890,71.003487 176.671112,81.690704 175.451736,96.534889
	C173.647232,118.502350 158.488876,130.400116 138.421860,134.020782
	C134.818466,134.670944 131.003326,134.967712 127.740601,136.437119
	C124.921349,137.706802 121.977631,139.960434 120.447823,142.574387
	C117.112411,148.273514 114.934975,154.639099 111.759850,160.445541
	C104.198715,174.272751 91.910873,181.009186 76.606743,182.532623
	C64.906212,183.697342 53.265736,183.608780 42.361427,178.189606
	C35.229977,174.645462 29.707464,169.431671 26.090551,162.284454
	C18.473845,147.233475 21.540581,131.797256 24.243509,116.296677
	C26.330019,104.331108 28.071253,92.301003 29.743557,80.268669
	C31.776394,65.642273 33.279808,50.936867 35.573917,36.354000
	C37.273453,25.550627 47.886723,12.916296 60.892532,10.212685
	C77.633675,6.732584 94.574516,7.205375 111.506218,7.269396
	C120.306015,7.302669 129.105927,7.304266 137.905792,7.318443
	C149.663315,7.337385 161.162369,9.026484 172.165512,13.232268
	C178.817825,15.775012 183.350906,20.759521 186.811523,26.942505
	C188.219284,29.457748 190.492676,31.488510 192.686111,33.869850
	C193.000000,41.354252 193.000000,48.708500 193.000000,56.531380
M138.031265,130.637695
	C139.978577,130.184509 141.935349,129.768219 143.871719,129.272324
	C159.312119,125.318237 170.628174,113.321358 172.413300,97.540688
	C173.624695,86.831764 177.350250,77.579926 182.854111,68.359703
	C197.608505,43.642822 185.473145,14.420838 155.901535,12.042251
	C133.873688,10.270443 111.669197,10.417998 89.540565,10.315215
	C80.946388,10.275297 72.252403,11.376980 63.767700,12.882117
	C51.054581,15.137352 39.802040,26.970627 37.984249,39.682777
	C36.737312,48.402870 36.684784,57.295143 35.407513,66.009193
	C33.235538,80.827278 30.133137,95.514069 28.153185,110.353615
	C26.550848,122.362991 25.747704,134.501678 25.124926,146.610504
	C24.755150,153.800125 27.354137,160.511032 31.960897,165.988052
	C41.292793,177.082794 53.859127,180.153809 67.835907,180.044998
	C90.748352,179.866638 106.839119,170.313416 113.864510,147.772781
	C117.462959,136.227310 126.012756,131.763443 138.031265,130.637695
z"/>
<path fill="#051B24" opacity="1.000000" stroke="none"
	d="
M193.000000,22.531218
	C188.658279,21.810040 185.068451,19.694784 183.028992,15.409441
	C182.560333,14.424658 181.619659,13.369807 180.641174,12.967526
	C169.795944,8.508765 159.209290,3.062807 146.852310,4.370646
	C143.407700,4.735217 139.861374,4.706505 136.424454,4.311806
	C134.936462,4.140924 133.607498,2.585425 132.103149,1.329433
	C152.225494,1.000000 172.450974,1.000000 193.000000,1.000000
	C193.000000,8.017499 193.000000,15.039967 193.000000,22.531218
z"/>
<path fill="#08222B" opacity="1.000000" stroke="none"
	d="
M137.613739,130.706070
	C126.012756,131.763443 117.462959,136.227310 113.864510,147.772781
	C106.839119,170.313416 90.748352,179.866638 67.835907,180.044998
	C53.859127,180.153809 41.292793,177.082794 31.960897,165.988052
	C27.354137,160.511032 24.755150,153.800125 25.124926,146.610504
	C25.747704,134.501678 26.550848,122.362991 28.153185,110.353615
	C30.133137,95.514069 33.235538,80.827278 35.407513,66.009193
	C36.684784,57.295143 36.737312,48.402870 37.984249,39.682777
	C39.802040,26.970627 51.054581,15.137352 63.767700,12.882117
	C72.252403,11.376980 80.946388,10.275297 89.540565,10.315215
	C111.669197,10.417998 133.873688,10.270443 155.901535,12.042251
	C185.473145,14.420838 197.608505,43.642822 182.854111,68.359703
	C177.350250,77.579926 173.624695,86.831764 172.413300,97.540688
	C170.628174,113.321358 159.312119,125.318237 143.871719,129.272324
	C141.935349,129.768219 139.978577,130.184509 137.613739,130.706070
M27.023916,140.431305
	C27.522696,151.515274 30.795448,161.544067 39.591190,168.763351
	C52.109119,179.037674 78.229370,179.838135 92.242012,171.401291
	C103.119499,164.852127 108.649208,154.765060 112.686676,143.430145
	C115.472260,135.609802 120.308983,130.278183 129.005737,129.272415
	C131.812897,128.947769 134.582596,128.312332 137.381363,127.899971
	C154.432922,125.387718 167.560120,112.829834 169.527161,95.787262
	C170.805405,84.712425 174.829895,75.237648 180.485931,65.715469
	C187.082687,54.609531 187.850418,42.317734 180.991882,30.535154
	C174.699829,19.725756 164.271423,14.773381 152.665054,14.425976
	C126.415573,13.640272 100.065063,13.020843 73.874847,14.477308
	C52.853580,15.646320 42.108204,26.851036 39.833267,49.093193
	C38.226109,64.806488 35.735241,80.432350 33.504105,96.078018
	C31.437468,110.570114 29.191826,125.036682 27.023916,140.431305
z"/>
<path fill="#0A262E" opacity="1.000000" stroke="none"
	d="
M27.024464,139.972900
	C29.191826,125.036682 31.437468,110.570114 33.504105,96.078018
	C35.735241,80.432350 38.226109,64.806488 39.833267,49.093193
	C42.108204,26.851036 52.853580,15.646320 73.874847,14.477308
	C100.065063,13.020843 126.415573,13.640272 152.665054,14.425976
	C164.271423,14.773381 174.699829,19.725756 180.991882,30.535154
	C187.850418,42.317734 187.082687,54.609531 180.485931,65.715469
	C174.829895,75.237648 170.805405,84.712425 169.527161,95.787262
	C167.560120,112.829834 154.432922,125.387718 137.381363,127.899971
	C134.582596,128.312332 131.812897,128.947769 129.005737,129.272415
	C120.308983,130.278183 115.472260,135.609802 112.686676,143.430145
	C108.649208,154.765060 103.119499,164.852127 92.242012,171.401291
	C78.229370,179.838135 52.109119,179.037674 39.591190,168.763351
	C30.795448,161.544067 27.522696,151.515274 27.024464,139.972900
M44.455479,42.461040
	C43.698246,44.420959 42.532070,46.324074 42.250675,48.350082
	C40.525177,60.773464 38.951881,73.218910 37.463459,85.673210
	C37.256737,87.402916 37.797634,89.221970 37.990013,91.663956
	C37.988602,92.106819 37.987190,92.549675 37.583935,93.301498
	C37.386787,94.200851 37.189640,95.100204 36.992657,96.798103
	C36.992218,97.863708 36.991779,98.929306 36.511570,100.379959
	C36.011471,101.255501 35.511368,102.131042 35.008755,103.754936
	C35.007019,104.503288 35.005283,105.251640 34.884426,106.392685
	C34.921329,106.928413 34.958233,107.464149 34.994633,108.748810
	C34.993694,109.497734 34.992756,110.246666 34.461498,111.457497
	C33.886478,112.444962 32.883163,113.398682 32.802292,114.425079
	C31.935240,125.428993 30.835821,136.439438 30.691238,147.459778
	C30.649769,150.620773 33.483368,153.819489 35.001858,157.498611
	C35.001858,157.498611 35.004669,157.996323 35.208988,158.671219
	C37.119770,164.551865 41.604080,167.750046 47.670673,169.993683
	C48.112865,169.996780 48.555061,169.999878 49.385231,170.580444
	C50.456154,171.324585 51.427498,172.434280 52.613144,172.757233
	C67.090225,176.700577 80.962158,175.461838 93.833702,167.336517
	C103.015938,161.540115 106.885071,152.009872 110.257149,142.418945
	C113.586494,132.949600 119.388672,127.225548 129.768173,126.782478
	C132.077591,126.683891 134.407822,126.243050 136.655563,125.672531
	C146.505264,123.172546 155.729782,119.640030 160.998535,109.498940
	C160.998535,109.498940 161.002701,109.002220 161.600677,108.703369
	C162.730194,106.799942 163.859711,104.896507 164.990372,102.327866
	C164.991791,101.884338 164.993210,101.440819 165.357635,100.354721
	C166.081116,97.803757 167.378235,95.263794 167.427368,92.699913
	C167.625046,82.388298 172.044617,73.957619 177.694473,65.646721
	C183.508377,57.094490 184.880081,47.223125 181.399200,37.419872
	C178.630844,29.623362 174.359268,22.570860 164.333374,20.999910
	C163.890915,20.996496 163.448441,20.993080 162.590454,20.445578
	C159.903275,19.275528 157.278366,17.293106 154.517715,17.081484
	C144.605225,16.321630 134.649002,15.917718 124.705307,15.829611
	C109.777565,15.697340 94.842377,15.762414 79.918228,16.096054
	C70.102165,16.315495 60.644333,18.494207 53.025059,25.147083
	C49.261581,28.433216 45.003887,31.912445 45.826324,38.670574
	C45.547695,39.777653 45.269066,40.884727 44.455479,42.461040
z"/>
<path fill="#0D2E37" opacity="1.000000" stroke="none"
	d="
M163.005981,20.989666
	C163.448441,20.993080 163.890915,20.996496 164.858459,21.268991
	C166.265778,22.279819 167.087799,23.111450 168.039658,23.749336
	C177.052994,29.789623 182.095032,38.364384 180.669495,49.012577
	C179.784042,55.626640 176.203308,61.947590 173.427307,68.220871
	C170.897507,73.937767 167.821533,79.412971 164.852081,84.649017
	C165.161346,81.273453 165.018936,77.988419 166.198761,75.279190
	C167.627380,71.998650 170.245972,69.251526 172.225052,66.192955
	C182.703262,49.999241 180.963287,32.626686 162.737244,23.959040
	C157.129959,21.292414 150.266998,21.266138 143.512726,20.026909
	C124.037155,20.024195 105.027870,20.025425 85.568649,20.023159
	C81.079941,20.015200 77.041145,20.010736 73.346848,19.840467
	C77.276527,19.117224 80.857246,18.114370 84.447693,18.078238
	C101.416862,17.907463 118.397789,17.668453 135.355927,18.133078
	C144.591766,18.386122 153.790512,19.993250 163.005981,20.989666
z"/>
<path fill="#0C2A32" opacity="1.000000" stroke="none"
	d="
M160.994003,109.995575
	C155.729782,119.640030 146.505264,123.172546 136.655563,125.672531
	C134.407822,126.243050 132.077591,126.683891 129.768173,126.782478
	C119.388672,127.225548 113.586494,132.949600 110.257149,142.418945
	C106.885071,152.009872 103.015938,161.540115 93.833702,167.336517
	C80.962158,175.461838 67.090225,176.700577 52.613144,172.757233
	C51.427498,172.434280 50.456154,171.324585 49.593292,170.323746
	C56.190407,171.034637 62.579212,172.810120 68.968559,172.812073
	C85.405411,172.817078 99.098160,163.905640 103.985886,150.613770
	C103.998650,149.496490 104.006554,148.751419 104.297684,147.826202
	C105.714973,145.426300 106.849022,143.206558 107.985306,140.614548
	C107.995903,139.498123 108.004272,138.753952 108.294060,137.833984
	C113.999985,127.791420 123.167381,125.148651 133.541718,123.977325
	C142.633224,122.950836 150.911224,119.508400 157.249847,112.387527
	C158.197556,111.322861 159.731339,110.779892 160.994003,109.995575
z"/>
<path fill="#0C2A32" opacity="1.000000" stroke="none"
	d="
M162.798218,20.717621
	C153.790512,19.993250 144.591766,18.386122 135.355927,18.133078
	C118.397789,17.668453 101.416862,17.907463 84.447693,18.078238
	C80.857246,18.114370 77.276527,19.117224 72.972664,19.841385
	C71.506042,20.009922 70.758095,20.011734 69.615540,20.043167
	C66.264297,20.996000 62.614655,21.130438 60.488266,22.998642
	C55.279877,27.574625 50.774586,32.950871 45.986366,38.005089
	C45.003887,31.912445 49.261581,28.433216 53.025059,25.147083
	C60.644333,18.494207 70.102165,16.315495 79.918228,16.096054
	C94.842377,15.762414 109.777565,15.697340 124.705307,15.829611
	C134.649002,15.917718 144.605225,16.321630 154.517715,17.081484
	C157.278366,17.293106 159.903275,19.275528 162.798218,20.717621
z"/>
<path fill="#0D2E37" opacity="1.000000" stroke="none"
	d="
M103.981033,150.986008
	C99.098160,163.905640 85.405411,172.817078 68.968559,172.812073
	C62.579212,172.810120 56.190407,171.034637 49.399307,170.035004
	C48.555061,169.999878 48.112865,169.996780 47.209015,169.681244
	C42.833130,165.577972 38.918900,161.787155 35.004669,157.996323
	C35.004669,157.996323 35.001858,157.498611 34.941704,156.863190
	C34.341843,154.132858 33.728077,152.053818 33.274944,149.940338
	C31.031181,139.475067 31.652908,129.160004 35.079697,119.344986
	C34.918171,124.243828 34.421974,128.809860 34.576958,133.353699
	C34.642094,135.263519 36.084103,137.126373 36.914879,139.414703
	C36.942451,140.901581 36.955334,141.984344 36.753616,143.348267
	C36.295895,146.007034 35.389359,148.545761 35.921101,150.735153
	C38.655983,161.995758 49.127903,169.538712 62.488178,169.967804
	C66.619568,169.968262 70.293655,169.965302 74.383240,169.951324
	C82.683403,169.403610 89.461639,166.502975 94.883797,160.630249
	C97.881485,157.383438 100.946411,154.198715 103.981033,150.986008
z"/>
<path fill="#0C2A32" opacity="1.000000" stroke="none"
	d="
M164.986298,84.994698
	C167.821533,79.412971 170.897507,73.937767 173.427307,68.220871
	C176.203308,61.947590 179.784042,55.626640 180.669495,49.012577
	C182.095032,38.364384 177.052994,29.789623 168.039658,23.749336
	C167.087799,23.111450 166.265778,22.279819 165.190552,21.270802
	C174.359268,22.570860 178.630844,29.623362 181.399200,37.419872
	C184.880081,47.223125 183.508377,57.094490 177.694473,65.646721
	C172.044617,73.957619 167.625046,82.388298 167.427368,92.699913
	C167.378235,95.263794 166.081116,97.803757 165.104401,100.335175
	C164.896927,96.207542 164.942657,92.099449 164.988480,87.616920
	C164.987808,86.493225 164.987061,85.743958 164.986298,84.994698
z"/>
<path fill="#0D2E37" opacity="1.000000" stroke="none"
	d="
M164.988388,87.991356
	C164.942657,92.099449 164.896927,96.207542 164.922913,100.656464
	C164.993210,101.440819 164.991791,101.884338 164.710876,102.835602
	C163.288498,105.229637 162.145599,107.115929 161.002701,109.002228
	C161.002701,109.002220 160.998535,109.498940 160.996277,109.747253
	C159.731339,110.779892 158.197556,111.322861 157.249847,112.387527
	C150.911224,119.508400 142.633224,122.950836 133.541718,123.977325
	C123.167381,125.148651 113.999985,127.791420 108.393585,137.488525
	C110.656937,128.076782 117.681274,124.710342 126.206955,123.040451
	C131.911163,121.923187 137.693359,120.872688 143.172302,119.005035
	C155.022644,114.965515 161.539215,106.409386 163.021851,93.932228
	C163.263016,91.902702 164.312515,89.969223 164.988388,87.991356
z"/>
<path fill="#0D2E37" opacity="1.000000" stroke="none"
	d="
M37.985775,92.992538
	C37.987190,92.549675 37.988602,92.106819 38.135933,90.972092
	C39.572361,82.938713 40.740997,75.572601 42.214775,68.268059
	C42.785614,65.438820 44.047161,62.748932 44.995975,60.456280
	C43.996658,68.119461 42.951382,75.316147 42.004635,82.525772
	C40.627579,93.012360 39.321526,103.508278 37.985382,114.331573
	C37.981663,115.104538 37.977764,115.546143 37.604012,115.989937
	C36.495060,116.000450 35.755955,116.008774 35.014244,115.598686
	C35.005028,113.785378 34.998425,112.390488 34.991817,110.995590
	C34.992756,110.246666 34.993694,109.497734 35.054741,108.178040
	C35.077751,107.071518 35.040649,106.535751 35.003548,105.999992
	C35.005283,105.251640 35.007019,104.503288 35.249550,103.188019
	C35.990677,101.745712 36.491009,100.870308 36.991341,99.994911
	C36.991779,98.929306 36.992218,97.863708 37.129707,96.111862
	C37.506428,94.614594 37.746101,93.803566 37.985775,92.992538
z"/>
<path fill="#0C2A32" opacity="1.000000" stroke="none"
	d="
M44.994049,59.995564
	C44.047161,62.748932 42.785614,65.438820 42.214775,68.268059
	C40.740997,75.572601 39.572361,82.938713 38.137146,90.639946
	C37.797634,89.221970 37.256737,87.402916 37.463459,85.673210
	C38.951881,73.218910 40.525177,60.773464 42.250675,48.350082
	C42.532070,46.324074 43.698246,44.420959 44.725357,42.677696
	C45.001389,45.599541 45.007542,48.304733 45.012207,51.458923
	C45.005161,54.603806 44.999607,57.299686 44.994049,59.995564
z"/>
<path fill="#0D2E37" opacity="1.000000" stroke="none"
	d="
M45.013695,51.009922
	C45.007542,48.304733 45.001389,45.599541 44.992836,42.443077
	C45.269066,40.884727 45.547695,39.777653 45.906349,38.337833
	C50.774586,32.950871 55.279877,27.574625 60.488266,22.998642
	C62.614655,21.130438 66.264297,20.996000 69.411781,20.310648
	C68.221573,21.435478 66.942848,22.587038 65.443085,23.167034
	C54.634624,27.346970 48.959404,35.464981 46.960426,46.596233
	C46.684200,48.134388 45.680573,49.541920 45.013695,51.009922
z"/>
<path fill="#0C2A32" opacity="1.000000" stroke="none"
	d="
M34.726662,111.226547
	C34.998425,112.390488 35.005028,113.785378 35.012489,115.971527
	C35.011593,117.509583 35.009846,118.256393 35.008099,119.003197
	C31.652908,129.160004 31.031181,139.475067 33.274944,149.940338
	C33.728077,152.053818 34.341843,154.132858 34.940132,156.614334
	C33.483368,153.819489 30.649769,150.620773 30.691238,147.459778
	C30.835821,136.439438 31.935240,125.428993 32.802292,114.425079
	C32.883163,113.398682 33.886478,112.444962 34.726662,111.226547
z"/>
<path fill="#0C2A32" opacity="1.000000" stroke="none"
	d="
M35.106827,158.333771
	C38.918900,161.787155 42.833130,165.577972 46.877342,169.679596
	C41.604080,167.750046 37.119770,164.551865 35.106827,158.333771
z"/>
<path fill="#0C2A32" opacity="1.000000" stroke="none"
	d="
M161.301697,108.852798
	C162.145599,107.115929 163.288498,105.229637 164.710312,103.168213
	C163.859711,104.896507 162.730194,106.799942 161.301697,108.852798
z"/>
<path fill="#0C2A32" opacity="1.000000" stroke="none"
	d="
M37.784855,93.147018
	C37.746101,93.803566 37.506428,94.614594 37.129623,95.712585
	C37.189640,95.100204 37.386787,94.200851 37.784855,93.147018
z"/>
<path fill="#0C2A32" opacity="1.000000" stroke="none"
	d="
M36.751457,100.187439
	C36.491009,100.870308 35.990677,101.745712 35.250801,102.813850
	C35.511368,102.131042 36.011471,101.255501 36.751457,100.187439
z"/>
<path fill="#0C2A32" opacity="1.000000" stroke="none"
	d="
M34.943985,106.196335
	C35.040649,106.535751 35.077751,107.071518 35.054993,107.803574
	C34.958233,107.464149 34.921329,106.928413 34.943985,106.196335
z"/>
<path fill="#10343C" opacity="1.000000" stroke="none"
	d="
M164.988480,87.616920
	C164.312515,89.969223 163.263016,91.902702 163.021851,93.932228
	C161.539215,106.409386 155.022644,114.965515 143.172302,119.005035
	C137.693359,120.872688 131.911163,121.923187 126.206955,123.040451
	C117.681274,124.710342 110.656937,128.076782 108.112167,137.664337
	C108.004272,138.753952 107.995903,139.498123 107.706329,140.798523
	C106.288231,143.571960 105.151337,145.789154 104.014450,148.006363
	C104.006554,148.751419 103.998650,149.496490 103.985893,150.613770
	C100.946411,154.198715 97.881485,157.383438 94.883797,160.630249
	C89.461639,166.502975 82.683403,169.403610 74.390350,169.585358
	C73.990631,168.496292 73.999290,167.762161 74.384926,167.020508
	C75.516624,166.993149 76.271355,166.973312 77.390472,166.948578
	C78.483711,166.944580 79.212547,166.945465 80.189156,166.800079
	C80.965881,166.109741 81.494827,165.565659 82.267403,165.019058
	C82.511032,165.016541 82.998253,165.008789 83.332336,164.964432
	C84.774078,164.274765 85.881729,163.629471 86.982986,162.986252
	C86.976585,162.988342 86.967537,162.973480 87.282837,162.915665
	C88.397430,162.569382 89.196724,162.280914 90.214066,161.781509
	C90.962715,160.720306 91.493317,159.870056 92.239197,158.806747
	C92.969284,157.739014 93.484093,156.884323 94.343826,155.939743
	C99.789574,153.894821 99.470314,149.246643 100.362991,144.894653
	C101.935493,142.684830 103.548607,140.762909 104.405296,138.548386
	C107.840172,129.669235 113.114990,122.880051 123.060188,121.010735
	C126.973671,120.275154 130.902161,119.616684 134.830673,118.964523
	C141.912094,117.788956 148.063721,114.993683 153.089172,109.625786
	C159.348114,102.940338 161.047073,94.826744 160.935394,86.168175
	C160.855118,79.944435 161.933334,74.225922 166.193558,69.497108
	C173.543915,61.338287 176.611389,51.904797 174.954681,40.666958
	C174.276093,39.221294 173.640991,38.109314 173.002777,36.749641
	C172.999695,36.501957 172.994080,36.006573 172.836243,35.767982
	C172.120712,35.018543 171.562988,34.507687 170.879532,33.694065
	C169.503204,32.259750 168.252609,31.128202 166.842010,29.759689
	C166.120041,29.016588 165.558105,28.510448 164.998077,28.002155
	C165.000000,28.000000 164.996643,28.004881 164.769745,27.761005
	C162.029129,26.675030 159.515427,25.832928 156.669586,24.988354
	C155.894562,24.984028 155.451675,24.982178 154.846954,24.745708
	C154.118698,24.012800 153.552307,23.514509 152.655121,23.017113
	C151.883240,23.016518 151.442184,23.015026 150.758560,22.919161
	C149.677505,22.881758 148.839020,22.938730 147.601227,22.995483
	C146.137619,22.992777 145.073303,22.990290 144.006592,22.617796
	C143.995804,21.508810 143.987411,20.769831 143.979019,20.030851
	C150.266998,21.266138 157.129959,21.292414 162.737244,23.959040
	C180.963287,32.626686 182.703262,49.999241 172.225052,66.192955
	C170.245972,69.251526 167.627380,71.998650 166.198761,75.279190
	C165.018936,77.988419 165.161346,81.273453 164.852081,84.649017
	C164.987061,85.743958 164.987808,86.493225 164.988480,87.616920
z"/>
<path fill="#10343C" opacity="1.000000" stroke="none"
	d="
M45.012207,51.458923
	C45.680573,49.541920 46.684200,48.134388 46.960426,46.596233
	C48.959404,35.464981 54.634624,27.346970 65.443085,23.167034
	C66.942848,22.587038 68.221573,21.435478 69.806381,20.281029
	C70.758095,20.011734 71.506042,20.009922 72.628174,20.007191
	C77.041145,20.010736 81.079941,20.015200 85.563248,20.391598
	C86.000290,21.501951 85.992813,22.240374 85.549332,22.981657
	C83.075386,22.988560 81.037445,22.992599 78.802727,22.938366
	C78.070442,22.922312 77.534935,22.964531 76.626450,23.009735
	C75.507515,23.015953 74.761551,23.019184 73.644836,23.071262
	C71.180428,24.074310 69.086784,25.028509 66.662018,25.986296
	C65.889404,25.995369 65.447922,26.000856 64.694809,26.107010
	C63.254429,27.136747 62.125664,28.065817 60.755489,29.135817
	C60.010632,29.518921 59.507179,29.761097 58.688984,30.133904
	C55.916977,33.843830 53.459721,37.423126 50.967323,41.413269
	C48.630154,56.550114 46.328129,71.276108 43.879021,86.339035
	C43.484501,89.451073 43.237064,92.226173 42.990185,95.332306
	C42.989613,96.104431 42.988483,96.545525 42.735523,97.221054
	C41.985523,100.304100 41.487350,103.152710 40.989037,106.400826
	C40.981178,107.866371 40.973461,108.932411 40.799049,110.114128
	C40.417706,110.818497 40.203056,111.407196 39.990578,112.329376
	C39.993580,113.106873 39.994411,113.550880 39.660378,113.995117
	C38.878738,113.996971 38.431969,113.998589 37.985195,114.000214
	C39.321526,103.508278 40.627579,93.012360 42.004635,82.525772
	C42.951382,75.316147 43.996658,68.119461 44.995972,60.456280
	C44.999607,57.299686 45.005161,54.603806 45.012207,51.458923
z"/>
<path fill="#123941" opacity="1.000000" stroke="none"
	d="
M85.985336,22.978794
	C85.992813,22.240374 86.000290,21.501951 86.013168,20.395094
	C105.027870,20.025425 124.037155,20.024195 143.512726,20.026909
	C143.987411,20.769831 143.995804,21.508810 143.536926,22.621159
	C124.041550,22.989285 105.013443,22.984039 85.985336,22.978794
z"/>
<path fill="#0D2E37" opacity="1.000000" stroke="none"
	d="
M104.297684,147.826202
	C105.151337,145.789154 106.288231,143.571960 107.704102,141.170776
	C106.849022,143.206558 105.714973,145.426300 104.297684,147.826202
z"/>
<path fill="#10343C" opacity="1.000000" stroke="none"
	d="
M62.030884,169.964386
	C49.127903,169.538712 38.655983,161.995758 35.921101,150.735153
	C35.389359,148.545761 36.295895,146.007034 37.007668,143.332214
	C37.645500,143.025711 37.814682,143.016449 37.988640,143.380035
	C37.999451,144.499008 38.005486,145.245148 38.048973,146.303528
	C38.063293,148.075180 38.040165,149.534622 38.203400,151.236908
	C39.251213,151.991089 40.112667,152.502411 40.982971,153.340973
	C41.002052,154.104599 41.012283,154.540970 41.105453,155.277771
	C41.791683,156.386627 42.394974,157.195053 43.240704,158.187683
	C44.321487,159.247940 45.159832,160.124039 46.157875,161.237488
	C46.878407,161.982513 47.439236,162.490173 48.247681,163.000427
	C48.495296,163.003006 48.990543,163.006927 49.206429,163.253403
	C50.615356,164.001892 51.808403,164.503922 53.335228,165.005737
	C54.114056,165.001602 54.559109,164.997681 55.399734,165.001617
	C56.850212,165.028519 57.905113,165.047577 59.099289,165.343872
	C60.160694,166.410156 61.082825,167.199203 62.008526,168.317871
	C62.018356,169.086441 62.024620,169.525406 62.030884,169.964386
z"/>
<path fill="#10343C" opacity="1.000000" stroke="none"
	d="
M35.079697,119.344986
	C35.009846,118.256393 35.011593,117.509583 35.015095,116.389938
	C35.755955,116.008774 36.495060,116.000450 37.777119,116.162994
	C38.553154,116.560997 38.794289,116.779236 39.037735,117.406693
	C39.018471,119.216209 39.004948,120.607605 38.762711,122.253815
	C38.051453,124.024452 37.568909,125.540283 37.087238,127.447487
	C37.082611,128.882553 37.077114,129.926239 37.023048,131.172546
	C37.002872,131.921921 37.031258,132.468704 37.057190,133.443115
	C37.052807,135.584290 37.050884,137.297852 37.011768,139.010483
	C36.974579,139.009567 36.900188,139.010590 36.900188,139.010590
	C36.084103,137.126373 34.642094,135.263519 34.576958,133.353699
	C34.421974,128.809860 34.918171,124.243828 35.079697,119.344986
z"/>
<path fill="#133B43" opacity="1.000000" stroke="none"
	d="
M62.488182,169.967804
	C62.024620,169.525406 62.018356,169.086441 62.132553,168.069809
	C62.501820,166.995712 62.750622,166.499268 63.384102,166.088745
	C67.179367,166.114487 70.589958,166.054337 74.002113,166.252655
	C74.005112,166.683426 74.006531,166.855728 74.007950,167.028030
	C73.999290,167.762161 73.990631,168.496292 73.974854,169.596375
	C70.293655,169.965302 66.619568,169.968262 62.488182,169.967804
z"/>
<path fill="#143D45" opacity="1.000000" stroke="none"
	d="
M37.983860,143.007202
	C37.814682,143.016449 37.645500,143.025711 37.222267,143.051056
	C36.955334,141.984344 36.942451,140.901581 36.914879,139.414703
	C36.900188,139.010590 36.974579,139.009567 37.229988,139.190887
	C37.651546,140.583878 37.817703,141.795532 37.983860,143.007202
z"/>
<path fill="#133B43" opacity="1.000000" stroke="none"
	d="
M39.043480,116.988571
	C38.794289,116.779236 38.553154,116.560997 38.146965,116.160805
	C37.977764,115.546143 37.981663,115.104538 37.985382,114.331573
	C38.431969,113.998589 38.878738,113.996971 39.668594,114.252190
	C40.017509,114.680214 40.023342,114.851387 39.920273,115.275703
	C39.555408,116.015411 39.299442,116.501991 39.043480,116.988571
z"/>
<path fill="#143D45" opacity="1.000000" stroke="none"
	d="
M174.998154,41.000641
	C176.611389,51.904797 173.543915,61.338287 166.193558,69.497108
	C161.933334,74.225922 160.855118,79.944435 160.935394,86.168175
	C161.047073,94.826744 159.348114,102.940338 153.089172,109.625786
	C148.063721,114.993683 141.912094,117.788956 134.830673,118.964523
	C130.902161,119.616684 126.973671,120.275154 123.060188,121.010735
	C113.114990,122.880051 107.840172,129.669235 104.405296,138.548386
	C103.548607,140.762909 101.935493,142.684830 100.454483,144.534882
	C101.448456,140.877869 102.550102,137.384689 103.889557,133.985229
	C106.859459,126.447746 111.885582,121.043335 120.411926,118.982681
	C123.890785,117.989731 126.957397,117.012054 130.353149,116.034332
	C131.121109,116.029884 131.559921,116.025490 132.325546,116.119362
	C141.934631,116.459396 151.158829,110.564079 154.948898,101.637749
	C154.937302,100.868629 154.926163,100.429062 154.933472,99.740036
	C154.965118,99.324348 154.978333,99.158119 155.255768,98.753937
	C156.256485,94.534554 157.998215,90.424767 157.509827,86.599724
	C156.627075,79.685745 158.435547,73.817024 162.871201,69.095802
	C170.952301,60.494442 174.327560,50.631485 173.184448,39.217121
	C173.924210,39.942886 174.461182,40.471764 174.998154,41.000641
z"/>
<path fill="#153F47" opacity="1.000000" stroke="none"
	d="
M85.549332,22.981657
	C105.013443,22.984039 124.041550,22.989285 143.539337,22.991165
	C145.073303,22.990290 146.137619,22.992777 147.843872,23.088814
	C149.324249,23.126085 150.162689,23.069809 151.001114,23.013535
	C151.442184,23.015026 151.883240,23.016518 152.817627,23.251446
	C153.876907,23.983364 154.442856,24.481846 155.008804,24.980328
	C155.451675,24.982178 155.894562,24.984028 156.968903,25.168404
	C160.065796,26.235580 162.531219,27.120232 164.996643,28.004883
	C164.996643,28.004881 165.000000,28.000000 165.157928,28.239277
	C165.877914,28.984587 166.439972,29.490620 167.002029,29.996653
	C168.252609,31.128202 169.503204,32.259750 171.037476,33.932438
	C171.878799,34.984573 172.436447,35.495575 172.994080,36.006573
	C172.994080,36.006573 172.999695,36.501957 173.000031,36.999794
	C172.999054,37.664391 172.997742,37.831154 172.743042,37.999516
	C172.320694,38.002369 172.151718,38.003628 171.621429,38.003536
	C170.296631,37.998249 169.333130,37.994312 168.298370,37.597794
	C167.836960,36.538204 167.446838,35.871193 166.959351,34.909168
	C163.105209,28.666660 156.839996,26.479488 150.677505,26.298967
	C126.982208,25.604847 103.257545,25.243496 79.560364,25.672054
	C71.975159,25.809231 63.859997,27.562519 58.821175,35.278671
	C58.240940,35.313255 58.007648,35.278297 57.556515,35.171196
	C56.889950,34.990803 56.441227,34.882553 56.162880,34.512726
	C57.223412,32.835186 58.113571,31.419230 59.003731,30.003271
	C59.507179,29.761097 60.010632,29.518921 61.066620,29.034607
	C62.748249,27.863760 63.877338,26.935051 65.006432,26.006344
	C65.447922,26.000856 65.889404,25.995369 67.031815,25.936161
	C69.827026,24.929098 71.921303,23.975756 74.015587,23.022415
	C74.761551,23.019184 75.507515,23.015953 76.823303,23.067753
	C77.928589,23.080738 78.464043,23.038689 78.999504,22.996639
	C81.037445,22.992599 83.075386,22.988560 85.549332,22.981657
z"/>
<path fill="#18464E" opacity="1.000000" stroke="none"
	d="
M119.999695,118.997963
	C111.885582,121.043335 106.859459,126.447746 103.889557,133.985229
	C102.550102,137.384689 101.448456,140.877869 100.147415,144.688293
	C99.470314,149.246643 99.789574,153.894821 94.339218,155.898361
	C93.989700,155.946869 93.976166,155.864731 93.993431,155.480072
	C97.969482,145.367767 101.475067,135.419250 106.066086,125.999748
	C108.603752,120.793159 113.801575,117.972588 119.999084,118.245964
	C119.999451,118.663742 119.999573,118.830856 119.999695,118.997963
z"/>
<path fill="#18464E" opacity="1.000000" stroke="none"
	d="
M74.000542,165.994186
	C70.589958,166.054337 67.179367,166.114487 63.065376,165.951248
	C61.227989,165.507446 60.094006,165.287048 58.960018,165.066650
	C57.905113,165.047577 56.850212,165.028519 55.186691,164.753815
	C53.391155,163.993179 52.204227,163.488159 51.013283,162.611801
	C51.000965,161.497803 50.992664,160.755157 51.322765,160.007843
	C52.111950,159.997955 52.562733,159.992706 53.343262,159.991760
	C54.112652,160.003494 54.552292,160.010925 55.173927,160.295425
	C56.911831,161.371780 58.467739,162.171082 60.438148,162.973846
	C62.235031,162.984589 63.617409,162.991821 65.358124,163.140259
	C68.478210,163.182693 71.239952,163.083954 74.331100,162.982391
	C75.099739,162.977280 75.538956,162.974976 76.337875,162.924561
	C78.467262,161.922943 80.236954,160.969437 82.335999,160.010086
	C83.104492,159.997253 83.543633,159.990234 84.359818,159.987015
	C85.489502,159.992554 86.242149,159.994293 86.945755,160.242676
	C86.920326,161.317368 86.943932,162.145416 86.967545,162.973480
	C86.967537,162.973480 86.976585,162.988342 86.652100,162.985306
	C85.886276,162.984726 85.444946,162.987167 84.668396,163.034119
	C83.213531,163.715546 82.093895,164.352463 80.831253,165.226639
	C80.439293,165.958054 80.190338,166.452194 79.941383,166.946350
	C79.212547,166.945465 78.483711,166.944580 77.233315,166.750717
	C75.808014,166.369888 74.904274,166.182037 74.000542,165.994186
z"/>
<path fill="#123941" opacity="1.000000" stroke="none"
	d="
M164.769745,27.761005
	C162.531219,27.120232 160.065796,26.235580 157.301056,25.170877
	C159.515427,25.832928 162.029129,26.675030 164.769745,27.761005
z"/>
<path fill="#143D45" opacity="1.000000" stroke="none"
	d="
M87.282837,162.915665
	C86.943932,162.145416 86.920326,161.317368 86.947937,160.244110
	C86.999153,159.998901 86.992264,159.989792 87.366531,159.990326
	C88.488556,159.984985 89.236320,159.979111 89.986168,160.309814
	C89.990845,161.095078 89.993431,161.543762 89.996017,161.992447
	C89.196724,162.280914 88.397430,162.569382 87.282837,162.915665
z"/>
<path fill="#143D45" opacity="1.000000" stroke="none"
	d="
M93.994301,155.988251
	C93.484093,156.884323 92.969284,157.739014 91.903793,158.803101
	C90.906479,159.009598 90.459824,159.006699 90.135529,158.752502
	C90.503548,157.998840 90.749214,157.496475 91.289719,156.873917
	C92.381760,156.457397 93.178963,156.161072 93.976166,155.864731
	C93.976166,155.864731 93.989700,155.946869 93.994301,155.988251
z"/>
<path fill="#123941" opacity="1.000000" stroke="none"
	d="
M172.996429,37.997917
	C172.997742,37.831154 172.999054,37.664391 173.003113,37.247478
	C173.640991,38.109314 174.276093,39.221294 174.954681,40.666958
	C174.461182,40.471764 173.924210,39.942886 173.192215,39.208549
	C172.997192,39.003086 172.988800,39.005653 172.991364,38.753723
	C172.994736,38.333839 172.995575,38.165878 172.996429,37.997917
z"/>
<path fill="#143D45" opacity="1.000000" stroke="none"
	d="
M74.002113,166.252655
	C74.904274,166.182037 75.808014,166.369888 76.868912,166.755615
	C76.271355,166.973312 75.516624,166.993149 74.384926,167.020508
	C74.006531,166.855728 74.005112,166.683426 74.002113,166.252655
z"/>
<path fill="#123941" opacity="1.000000" stroke="none"
	d="
M150.758560,22.919159
	C150.162689,23.069809 149.324249,23.126085 148.243164,23.089031
	C148.839020,22.938730 149.677505,22.881758 150.758560,22.919159
z"/>
<path fill="#133B43" opacity="1.000000" stroke="none"
	d="
M85.003616,162.989609
	C85.444946,162.987167 85.886276,162.984726 86.658493,162.983215
	C85.881729,163.629471 84.774078,164.274765 83.532494,164.762054
	C83.933578,164.065887 84.468597,163.527740 85.003616,162.989609
z"/>
<path fill="#143D45" opacity="1.000000" stroke="none"
	d="
M84.668396,163.034119
	C84.468597,163.527740 83.933578,164.065887 83.198410,164.806396
	C82.998253,165.008789 82.511032,165.016541 82.004921,165.010712
	C81.323952,164.999695 81.149101,164.994537 80.974251,164.989380
	C82.093895,164.352463 83.213531,163.715546 84.668396,163.034119
z"/>
<path fill="#133B43" opacity="1.000000" stroke="none"
	d="
M90.013176,159.003799
	C90.459824,159.006699 90.906479,159.009598 91.688522,159.016144
	C91.493317,159.870056 90.962715,160.720306 90.214066,161.781509
	C89.993431,161.543762 89.990845,161.095078 89.993149,160.067596
	C89.998039,159.488800 90.013176,159.003799 90.013176,159.003799
z"/>
<path fill="#133B43" opacity="1.000000" stroke="none"
	d="
M80.831253,165.226639
	C81.149101,164.994537 81.323952,164.999695 81.761292,165.013214
	C81.494827,165.565659 80.965881,166.109741 80.189156,166.800079
	C80.190338,166.452194 80.439293,165.958054 80.831253,165.226639
z"/>
<path fill="#123941" opacity="1.000000" stroke="none"
	d="
M154.846954,24.745710
	C154.442856,24.481846 153.876907,23.983364 153.148438,23.250549
	C153.552307,23.514509 154.118698,24.012800 154.846954,24.745710
z"/>
<path fill="#123941" opacity="1.000000" stroke="none"
	d="
M166.842010,29.759689
	C166.439972,29.490620 165.877914,28.984587 165.156006,28.241432
	C165.558105,28.510448 166.120041,29.016588 166.842010,29.759689
z"/>
<path fill="#123941" opacity="1.000000" stroke="none"
	d="
M172.836243,35.767982
	C172.436447,35.495575 171.878799,34.984573 171.163223,34.235203
	C171.562988,34.507687 172.120712,35.018543 172.836243,35.767982
z"/>
<path fill="#153F47" opacity="1.000000" stroke="none"
	d="
M44.026104,86.002106
	C46.328129,71.276108 48.630154,56.550114 51.259552,41.250366
	C53.139664,39.762924 54.692394,38.849228 56.477940,38.115639
	C56.795506,38.863621 56.880260,39.431499 56.654732,40.150406
	C55.083755,42.511620 53.158253,44.590546 52.690945,46.957378
	C51.445961,53.262966 51.091118,59.742310 49.891739,66.059418
	C48.554852,73.100769 46.676960,80.039406 44.868042,86.850937
	C44.478600,86.451241 44.253456,86.225571 44.026104,86.002106
z"/>
<path fill="#123941" opacity="1.000000" stroke="none"
	d="
M56.245132,37.935532
	C54.692394,38.849228 53.139664,39.762924 51.294697,40.839520
	C53.459721,37.423126 55.916977,33.843830 58.688984,30.133904
	C58.113571,31.419230 57.223412,32.835186 56.117435,34.694118
	C55.901619,35.137093 55.857536,35.504883 55.882278,35.915359
	C56.019722,36.862396 56.132427,37.398964 56.245132,37.935532
z"/>
<path fill="#133B43" opacity="1.000000" stroke="none"
	d="
M43.879021,86.339035
	C44.253456,86.225571 44.478600,86.451241 44.864281,87.292480
	C45.007854,90.264687 44.988682,92.623528 44.639664,94.985519
	C43.869759,94.992874 43.429695,94.997078 42.989632,95.001282
	C43.237064,92.226173 43.484501,89.451073 43.879021,86.339035
z"/>
<path fill="#133B43" opacity="1.000000" stroke="none"
	d="
M40.989182,106.001328
	C41.487350,103.152710 41.985523,100.304100 42.739227,97.624191
	C42.999538,98.864815 43.004311,99.936722 42.892868,101.353516
	C42.522751,103.133957 42.268845,104.569504 41.758499,106.004044
	C41.331100,106.002457 41.160141,106.001892 40.989182,106.001328
z"/>
<path fill="#123941" opacity="1.000000" stroke="none"
	d="
M73.644836,23.071262
	C71.921303,23.975756 69.827026,24.929098 67.362938,25.932575
	C69.086784,25.028509 71.180428,24.074310 73.644836,23.071262
z"/>
<path fill="#153F47" opacity="1.000000" stroke="none"
	d="
M43.009079,101.008636
	C43.004311,99.936722 42.999538,98.864815 42.991058,97.389755
	C42.988483,96.545525 42.989613,96.104431 42.990189,95.332306
	C43.429695,94.997078 43.869759,94.992874 44.637306,95.370819
	C44.312889,97.504852 43.660984,99.256744 43.009079,101.008636
z"/>
<path fill="#153F47" opacity="1.000000" stroke="none"
	d="
M40.989037,106.400826
	C41.160141,106.001892 41.331100,106.002457 41.860706,106.275726
	C41.823643,107.698952 41.427933,108.849472 41.015877,109.999405
	C40.999531,109.998810 40.965744,109.998459 40.965744,109.998459
	C40.973461,108.932411 40.981178,107.866371 40.989037,106.400826
z"/>
<path fill="#123941" opacity="1.000000" stroke="none"
	d="
M64.694809,26.107010
	C63.877338,26.935051 62.748249,27.863760 61.308029,28.893677
	C62.125664,28.065817 63.254429,27.136747 64.694809,26.107010
z"/>
<path fill="#153F47" opacity="1.000000" stroke="none"
	d="
M40.029171,115.022568
	C40.023342,114.851387 40.017509,114.680214 40.003460,114.251961
	C39.994411,113.550880 39.993580,113.106873 40.247574,112.331902
	C40.673664,112.002373 40.844929,112.003807 41.087799,112.246094
	C40.782661,113.332153 40.405918,114.177361 40.029171,115.022568
z"/>
<path fill="#123941" opacity="1.000000" stroke="none"
	d="
M78.802727,22.938366
	C78.464043,23.038689 77.928589,23.080738 77.196274,23.064770
	C77.534935,22.964531 78.070442,22.922312 78.802727,22.938366
z"/>
<path fill="#133B43" opacity="1.000000" stroke="none"
	d="
M41.016197,112.005234
	C40.844929,112.003807 40.673664,112.002373 40.245403,111.998413
	C40.203056,111.407196 40.417706,110.818497 40.799049,110.114128
	C40.965744,109.998459 40.999531,109.998810 41.012383,110.333679
	C41.022224,111.114113 41.019211,111.559669 41.016197,112.005234
z"/>
<path fill="#18464E" opacity="1.000000" stroke="none"
	d="
M41.087803,112.246094
	C41.019211,111.559669 41.022224,111.114113 41.028728,110.334274
	C41.427933,108.849472 41.823643,107.698952 42.117146,106.276741
	C42.268845,104.569504 42.522751,103.133957 42.892868,101.353516
	C43.660984,99.256744 44.312889,97.504852 44.967148,95.367661
	C44.988682,92.623528 45.007854,90.264687 45.030792,87.464294
	C46.676960,80.039406 48.554852,73.100769 49.891739,66.059418
	C51.091118,59.742310 51.445961,53.262966 52.690945,46.957378
	C53.158253,44.590546 55.083755,42.511620 56.888840,40.371040
	C57.900932,40.855942 58.368641,41.271233 58.537506,41.959785
	C57.150917,44.771820 55.531631,47.216564 55.063175,49.864883
	C52.369774,65.091354 49.737389,80.335075 47.497459,95.633446
	C45.405624,109.920334 43.425545,124.250648 42.285099,138.632324
	C41.967152,142.641769 44.801125,146.901138 46.205090,151.447540
	C46.057785,152.906525 45.894539,153.963837 45.448486,155.090469
	C44.441723,155.430557 43.717770,155.701324 42.747574,155.847717
	C42.008389,155.474686 41.515450,155.226013 41.022514,154.977341
	C41.012283,154.540970 41.002052,154.104599 40.988144,153.005920
	C40.984852,151.897125 40.985237,151.450638 40.898163,150.674286
	C39.877644,148.893356 38.944584,147.442337 38.011524,145.991302
	C38.005486,145.245148 37.999451,144.499008 37.988640,143.380035
	C37.817703,141.795532 37.651546,140.583878 37.267174,139.191803
	C37.050884,137.297852 37.052807,135.584290 37.198650,133.323334
	C37.252251,132.173920 37.161934,131.571915 37.071617,130.969925
	C37.077114,129.926239 37.082611,128.882553 37.379143,127.323067
	C38.110592,125.204506 38.551006,123.601753 38.991425,121.998993
	C39.004948,120.607605 39.018471,119.216209 39.037735,117.406693
	C39.299442,116.501991 39.555408,116.015411 39.920273,115.275703
	C40.405918,114.177361 40.782661,113.332153 41.087803,112.246094
z"/>
<path fill="#143D45" opacity="1.000000" stroke="none"
	d="
M42.993816,155.972076
	C43.717770,155.701324 44.441723,155.430557 45.655331,155.264709
	C46.429195,155.591324 46.713409,155.813065 47.081791,156.331223
	C47.774673,157.421036 48.383392,158.214401 49.241646,159.132751
	C49.988911,159.509323 50.486637,159.760910 50.984364,160.012497
	C50.992664,160.755157 51.000965,161.497803 51.006599,162.618240
	C51.003933,162.996017 50.998817,163.002274 50.664162,163.002670
	C49.883186,163.004349 49.436863,163.005630 48.990543,163.006927
	C48.990543,163.006927 48.495296,163.003006 48.087673,162.763489
	C47.119427,162.016006 46.558804,161.508072 45.998184,161.000122
	C45.159832,160.124039 44.321487,159.247940 43.240368,157.849274
	C42.996334,156.875137 42.995075,156.423615 42.993816,155.972076
z"/>
<path fill="#143D45" opacity="1.000000" stroke="none"
	d="
M38.048973,146.303528
	C38.944584,147.442337 39.877644,148.893356 40.527214,150.673141
	C39.501499,150.999283 38.759270,150.996658 38.017036,150.994049
	C38.040165,149.534622 38.063293,148.075180 38.048973,146.303528
z"/>
<path fill="#143D45" opacity="1.000000" stroke="none"
	d="
M59.099289,165.343872
	C60.094006,165.287048 61.227989,165.507446 62.680702,165.865341
	C62.750622,166.499268 62.501820,166.995712 62.128990,167.740204
	C61.082825,167.199203 60.160694,166.410156 59.099289,165.343872
z"/>
<path fill="#143D45" opacity="1.000000" stroke="none"
	d="
M51.010616,162.989578
	C52.204227,163.488159 53.391155,163.993179 54.791122,164.745987
	C54.559109,164.997681 54.114056,165.001602 53.135506,164.804596
	C52.067616,164.069870 51.533215,163.536072 50.998817,163.002274
	C50.998817,163.002274 51.003933,162.996017 51.010616,162.989578
z"/>
<path fill="#133B43" opacity="1.000000" stroke="none"
	d="
M38.203400,151.236908
	C38.759270,150.996658 39.501499,150.999283 40.614677,151.003021
	C40.985237,151.450638 40.984852,151.897125 40.979294,152.678665
	C40.112667,152.502411 39.251213,151.991089 38.203400,151.236908
z"/>
<path fill="#133B43" opacity="1.000000" stroke="none"
	d="
M50.664162,163.002670
	C51.533215,163.536072 52.067616,164.069870 52.801731,164.804810
	C51.808403,164.503922 50.615356,164.001892 49.206429,163.253403
	C49.436863,163.005630 49.883186,163.004349 50.664162,163.002670
z"/>
<path fill="#133B43" opacity="1.000000" stroke="none"
	d="
M42.747574,155.847717
	C42.995075,156.423615 42.996334,156.875137 42.997932,157.665085
	C42.394974,157.195053 41.791683,156.386627 41.105453,155.277771
	C41.515450,155.226013 42.008389,155.474686 42.747574,155.847717
z"/>
<path fill="#133B43" opacity="1.000000" stroke="none"
	d="
M46.157879,161.237488
	C46.558804,161.508072 47.119427,162.016006 47.840057,162.760895
	C47.439236,162.490173 46.878407,161.982513 46.157879,161.237488
z"/>
<path fill="#143D45" opacity="1.000000" stroke="none"
	d="
M38.762711,122.253815
	C38.551006,123.601753 38.110592,125.204506 37.378273,126.931686
	C37.568909,125.540283 38.051453,124.024452 38.762711,122.253815
z"/>
<path fill="#143D45" opacity="1.000000" stroke="none"
	d="
M37.023048,131.172546
	C37.161934,131.571915 37.252251,132.173920 37.201111,132.895691
	C37.031258,132.468704 37.002872,131.921921 37.023048,131.172546
z"/>
<path fill="#17454D" opacity="1.000000" stroke="none"
	d="
M168.369644,37.990376
	C169.333130,37.994312 170.296631,37.998249 171.782257,38.177460
	C172.522858,38.580502 172.750992,38.798141 172.988800,39.005653
	C172.988800,39.005653 172.997192,39.003086 172.989426,39.011658
	C174.327560,50.631485 170.952301,60.494442 162.871201,69.095802
	C158.435547,73.817024 156.627075,79.685745 157.509827,86.599724
	C157.998215,90.424767 156.256485,94.534554 155.254578,98.290283
	C154.987167,93.712677 154.985214,89.360786 154.984512,84.601265
	C154.660828,82.128502 154.335892,80.063370 154.012726,77.625542
	C154.014954,76.507484 154.015411,75.762123 154.300629,74.844032
	C155.727066,72.782074 156.868744,70.892838 158.010529,68.754318
	C158.010651,68.505043 158.006638,68.006500 158.255783,67.807968
	C159.354156,66.415840 160.203384,65.222252 161.285095,63.860172
	C162.001328,63.105354 162.485092,62.519039 163.078629,61.660156
	C163.569763,60.941765 163.951126,60.495941 164.628815,59.908585
	C170.385513,55.007908 171.636963,47.011803 167.857178,40.588234
	C168.021408,39.467823 168.195526,38.729099 168.369644,37.990376
z"/>
<path fill="#1A4B53" opacity="1.000000" stroke="none"
	d="
M93.993431,155.480072
	C93.178963,156.161072 92.381760,156.457397 90.973877,156.801025
	C89.316460,156.652695 88.269707,156.457062 87.126953,156.150269
	C87.030960,156.039124 86.838997,155.816772 86.961441,155.554459
	C87.531921,154.454147 87.979942,153.616150 88.768204,152.669571
	C91.417534,149.641022 94.255661,146.989746 95.908165,143.736267
	C98.220726,139.183212 99.459305,134.098846 101.500763,129.390671
	C104.647171,122.134193 109.807198,117.084465 117.937157,115.703941
	C121.691605,115.066414 125.481636,114.577515 129.185883,113.720253
	C134.252762,112.547653 139.896301,112.425400 143.385986,107.041595
	C144.507721,107.023933 145.257919,107.080200 145.933685,107.478912
	C144.031754,109.548477 142.437668,111.683334 140.316544,112.897400
	C137.779205,114.349686 134.791428,115.014954 131.998734,116.021088
	C131.559921,116.025490 131.121109,116.029884 129.939758,116.043175
	C126.131088,116.699814 123.064972,117.347565 119.998848,117.995300
	C113.801575,117.972588 108.603752,120.793159 106.066086,125.999748
	C101.475067,135.419250 97.969482,145.367767 93.993431,155.480072
z"/>
<path fill="#1C4E57" opacity="1.000000" stroke="none"
	d="
M154.983261,85.008896
	C154.985214,89.360786 154.987167,93.712677 154.990326,98.528229
	C154.978333,99.158119 154.965118,99.324348 154.646637,99.832336
	C153.563019,100.786484 152.784668,101.398888 152.003830,102.257935
	C152.001328,102.504585 151.995499,102.997849 151.672913,103.078094
	C150.278366,103.439636 149.206406,103.720924 148.098480,103.607071
	C149.355392,97.142250 150.648239,91.072578 152.321564,85.002625
	C153.462448,85.004524 154.222855,85.006714 154.983261,85.008896
z"/>
<path fill="#17454D" opacity="1.000000" stroke="none"
	d="
M151.995499,102.997849
	C151.995499,102.997849 152.001328,102.504585 152.372253,102.253311
	C153.478561,101.990456 154.213943,101.978882 154.949341,101.967300
	C151.158829,110.564079 141.934631,116.459396 132.325546,116.119354
	C134.791428,115.014954 137.779205,114.349686 140.316544,112.897400
	C142.437668,111.683334 144.031754,109.548477 146.128967,107.397278
	C146.398697,106.973183 146.819153,106.923950 147.171051,106.870453
	C149.013794,105.543922 150.504654,104.270882 151.995499,102.997849
z"/>
<path fill="#17454D" opacity="1.000000" stroke="none"
	d="
M119.999084,118.245972
	C123.064972,117.347565 126.131088,116.699814 129.610611,116.043221
	C126.957397,117.012054 123.890785,117.989731 120.411926,118.982681
	C119.999573,118.830856 119.999451,118.663742 119.999084,118.245972
z"/>
<path fill="#1A4B53" opacity="1.000000" stroke="none"
	d="
M154.948898,101.637749
	C154.213943,101.978882 153.478561,101.990456 152.374756,102.006668
	C152.784668,101.398888 153.563019,100.786484 154.628204,100.081787
	C154.926163,100.429062 154.937302,100.868629 154.948898,101.637749
z"/>
<path fill="#51B9E2" opacity="1.000000" stroke="none"
	d="
M146.819153,106.923950
	C146.819153,106.923950 146.398697,106.973183 146.203400,107.054825
	C145.257919,107.080200 144.507721,107.023933 142.943420,106.950157
	C139.427063,106.996498 136.724823,107.060349 133.559998,107.033569
	C126.411995,107.005646 119.726585,107.068344 112.577950,107.046654
	C108.490364,106.991943 104.865837,107.057304 101.241692,107.040375
	C98.162682,107.026001 96.241394,108.327179 95.716805,111.479950
	C94.907196,116.345772 94.053520,121.204262 93.112320,126.456970
	C91.977875,132.892563 90.949646,138.937057 89.772125,145.346588
	C89.224548,148.067139 88.826256,150.422638 88.427963,152.778152
	C87.979942,153.616150 87.531921,154.454147 86.604477,155.553802
	C85.419014,155.902420 84.712952,155.989380 83.612938,155.988617
	C82.149338,155.956146 81.079704,156.011398 79.549019,155.971222
	C71.722809,155.935501 64.357643,155.995209 56.595329,155.982086
	C55.129879,155.964905 54.061573,156.020569 52.599693,155.986862
	C51.136810,155.944611 50.067513,155.991745 48.667950,155.959442
	C47.890999,155.931610 47.444313,155.983200 46.997623,156.034790
	C46.713409,155.813065 46.429195,155.591324 45.938141,155.195374
	C45.894539,153.963837 46.057785,152.906525 46.392067,151.110519
	C47.074139,146.920959 47.585171,143.470093 48.281734,139.679749
	C53.585381,110.520813 58.748951,81.709190 63.714691,52.863514
	C64.030327,51.029999 62.809147,48.931919 62.186317,46.648926
	C60.991928,44.789463 59.914139,43.237991 58.836349,41.686523
	C58.368641,41.271233 57.900932,40.855942 57.199120,40.220009
	C56.880260,39.431499 56.795506,38.863621 56.477943,38.115639
	C56.132427,37.398964 56.019722,36.862396 56.209187,35.935204
	C56.932354,35.444168 57.353359,35.343754 57.774361,35.243343
	C58.007648,35.278297 58.240940,35.313255 59.205803,35.392593
	C61.263737,35.353703 62.590096,35.270428 64.335068,35.301109
	C66.481651,35.349812 68.209641,35.284561 70.367592,35.336582
	C94.076576,35.457706 117.355614,35.475349 140.634598,35.454704
	C145.777679,35.450146 150.920624,35.310074 156.490494,35.309639
	C158.640396,35.315884 160.363449,35.244888 162.492645,35.279861
	C164.284775,35.325279 165.670746,35.264732 167.056702,35.204185
	C167.446838,35.871193 167.836960,36.538204 168.298370,37.597794
	C168.195526,38.729099 168.021408,39.467823 167.666077,40.924149
	C166.434082,47.777870 165.383286,53.913998 164.332489,60.050117
	C163.951126,60.495941 163.569763,60.941765 162.752380,61.697014
	C161.882660,62.062679 161.448990,62.118919 160.618484,62.112438
	C159.153275,62.091480 158.084900,62.133244 156.602844,62.113857
	C154.797501,62.095917 153.405807,62.139126 151.599823,62.123566
	C149.792908,62.101868 148.400284,62.138935 146.573334,62.096970
	C144.092834,61.952541 142.046677,61.887154 139.540024,61.745491
	C134.718552,61.726357 130.357544,61.783489 125.555168,61.775196
	C122.739082,61.761303 120.364380,61.812836 117.573708,61.814907
	C115.763756,61.802418 114.369781,61.839386 112.575562,61.837795
	C111.103462,61.823944 110.031609,61.848656 108.566704,61.870148
	C106.666313,63.289730 104.533775,64.450287 103.800735,66.197868
	C102.747429,68.708954 102.610672,71.634834 102.266350,74.406471
	C101.608047,79.705635 102.500076,80.600983 108.513046,80.660263
	C110.294624,80.671249 111.666626,80.637085 113.439728,80.652588
	C114.914192,80.661232 115.987549,80.620224 117.486160,80.635696
	C119.624382,80.652679 121.337349,80.613182 123.490067,80.635208
	C126.301003,80.662285 128.672180,80.627831 131.496277,80.658875
	C135.318878,80.703514 138.688538,80.682655 142.451645,80.713669
	C143.632935,80.711052 144.420776,80.656570 145.618912,80.678955
	C147.694931,80.721291 149.360672,80.686760 151.256744,80.765289
	C151.643600,80.947296 151.800140,81.016266 151.941650,81.477463
	C151.931442,82.914093 151.936264,83.958496 151.941071,85.002907
	C150.648239,91.072578 149.355392,97.142250 147.999176,103.915009
	C147.563583,105.386711 147.191360,106.155327 146.819153,106.923950
M52.812435,136.386932
	C51.939022,141.382156 51.065609,146.377365 50.078823,152.021011
	C60.638325,152.021011 70.269119,151.829300 79.885796,152.114151
	C83.803764,152.230225 84.983330,150.698151 85.558861,147.117935
	C87.646500,134.131241 90.157082,121.212425 92.232101,108.223907
	C92.846893,104.375633 94.308044,103.011772 98.327721,103.082710
	C112.313309,103.329521 126.306946,103.250771 140.294586,103.069572
	C141.874817,103.049103 144.520279,101.879494 144.820175,100.750786
	C146.162674,95.697983 146.834488,90.466965 147.890793,84.495407
	C130.531464,84.495407 113.973297,84.495407 96.680672,84.495407
	C97.949471,77.028328 99.342743,70.379601 100.128593,63.659836
	C100.654373,59.163895 102.368912,57.624416 107.051384,57.710766
	C123.367455,58.011654 139.693008,57.883091 156.013367,57.737942
	C157.695648,57.722977 160.559113,56.829952 160.842896,55.789974
	C162.270309,50.559078 163.022873,45.144035 164.077637,39.440964
	C130.047531,39.440964 96.701714,39.440964 62.807716,39.440964
	C63.493046,40.952507 63.725163,42.158024 64.435410,42.914829
	C68.161400,46.885056 68.004837,51.309643 67.071930,56.357975
	C62.200371,82.720032 57.626518,109.137100 52.812435,136.386932
z"/>
<path fill="#18474F" opacity="1.000000" stroke="none"
	d="
M166.959351,34.909172
	C165.670746,35.264732 164.284775,35.325279 162.384232,34.990044
	C159.917557,33.169003 158.146423,30.971386 155.979355,30.463636
	C149.540085,28.954901 142.967178,27.349522 136.406448,27.158619
	C120.425629,26.693611 104.412277,26.678698 88.432785,27.164783
	C82.058624,27.358681 75.664886,29.064171 69.436333,30.682884
	C67.347267,31.225801 65.742561,33.632404 63.916458,35.187149
	C62.590096,35.270428 61.263737,35.353703 59.552746,35.323055
	C63.859997,27.562519 71.975159,25.809231 79.560364,25.672054
	C103.257545,25.243496 126.982208,25.604847 150.677505,26.298967
	C156.839996,26.479488 163.105209,28.666660 166.959351,34.909172
z"/>
<path fill="#18474F" opacity="1.000000" stroke="none"
	d="
M57.556515,35.171196
	C57.353359,35.343754 56.932354,35.444168 56.184444,35.524731
	C55.857536,35.504883 55.901619,35.137093 55.947063,34.955696
	C56.441227,34.882553 56.889950,34.990803 57.556515,35.171196
z"/>
<path fill="#143D45" opacity="1.000000" stroke="none"
	d="
M172.991364,38.753723
	C172.750992,38.798141 172.522858,38.580502 172.143570,38.178810
	C172.151718,38.003628 172.320694,38.002369 172.743042,37.999516
	C172.995575,38.165878 172.994736,38.333839 172.991364,38.753723
z"/>
<path fill="#1E535B" opacity="1.000000" stroke="none"
	d="
M80.010063,156.066650
	C81.079704,156.011398 82.149338,155.956146 83.614349,156.379028
	C84.000740,157.899185 83.991760,158.941193 83.982780,159.983215
	C83.543633,159.990234 83.104492,159.997253 81.977905,160.060669
	C79.519707,161.068939 77.748947,162.020813 75.978180,162.972687
	C75.538956,162.974976 75.099739,162.977280 73.971786,162.845337
	C70.521965,162.807114 67.760880,162.903091 64.999786,162.999069
	C63.617409,162.991821 62.235031,162.984589 60.253075,162.699295
	C58.099644,161.620285 56.545788,160.819321 54.991932,160.018356
	C54.552292,160.010925 54.112652,160.003494 53.339386,159.601181
	C53.001598,158.162933 52.997433,157.119583 52.993271,156.076233
	C54.061573,156.020569 55.129879,155.964905 56.760468,156.289291
	C62.820442,161.490555 75.382179,161.156860 80.010063,156.066650
z"/>
<path fill="#1A4B53" opacity="1.000000" stroke="none"
	d="
M65.358124,163.140259
	C67.760880,162.903091 70.521965,162.807114 73.642380,162.848175
	C71.239952,163.083954 68.478210,163.182693 65.358124,163.140259
z"/>
<path fill="#1A4B53" opacity="1.000000" stroke="none"
	d="
M52.599693,155.986847
	C52.997433,157.119583 53.001598,158.162933 53.009636,159.596878
	C52.562733,159.992706 52.111950,159.997955 51.322765,160.007843
	C50.486637,159.760910 49.988911,159.509323 49.242752,158.761536
	C48.995613,157.523178 48.996914,156.781021 48.998211,156.038864
	C50.067513,155.991745 51.136810,155.944611 52.599693,155.986847
z"/>
<path fill="#1A4B53" opacity="1.000000" stroke="none"
	d="
M76.337875,162.924561
	C77.748947,162.020813 79.519707,161.068939 81.648560,160.066498
	C80.236954,160.969437 78.467262,161.922943 76.337875,162.924561
z"/>
<path fill="#1A4B53" opacity="1.000000" stroke="none"
	d="
M84.359818,159.987015
	C83.991760,158.941193 84.000740,157.899185 84.008308,156.466736
	C84.712952,155.989380 85.419014,155.902420 86.482033,155.816116
	C86.838997,155.816772 87.030960,156.039124 87.084869,156.517029
	C87.089951,157.993225 87.041107,158.991501 86.992264,159.989792
	C86.992264,159.989792 86.999153,159.998901 86.996971,159.997467
	C86.242149,159.994293 85.489502,159.992554 84.359818,159.987015
z"/>
<path fill="#1A4B53" opacity="1.000000" stroke="none"
	d="
M55.173927,160.295425
	C56.545788,160.819321 58.099644,161.620285 59.838570,162.695801
	C58.467739,162.171082 56.911831,161.371780 55.173927,160.295425
z"/>
<path fill="#18464E" opacity="1.000000" stroke="none"
	d="
M87.366531,159.990326
	C87.041107,158.991501 87.089951,157.993225 87.180870,156.628174
	C88.269707,156.457062 89.316460,156.652695 90.679047,156.921204
	C90.749214,157.496475 90.503548,157.998840 90.135529,158.752502
	C90.013176,159.003799 89.998039,159.488800 89.991058,159.731018
	C89.236320,159.979111 88.488556,159.984985 87.366531,159.990326
z"/>
<path fill="#205861" opacity="1.000000" stroke="none"
	d="
M58.537506,41.959785
	C59.914139,43.237991 60.991928,44.789463 61.880363,46.845119
	C60.504429,50.529991 58.830433,53.620384 58.221420,56.908054
	C56.288712,67.341644 54.728466,77.844894 53.070366,88.328514
	C50.789856,102.747414 48.398540,117.152199 46.432835,131.614426
	C46.069004,134.291214 47.495838,137.211395 48.096207,140.019241
	C47.585171,143.470093 47.074139,146.920959 46.376125,150.708832
	C44.801125,146.901138 41.967152,142.641769 42.285099,138.632324
	C43.425545,124.250648 45.405624,109.920334 47.497459,95.633446
	C49.737389,80.335075 52.369774,65.091354 55.063175,49.864883
	C55.531631,47.216564 57.150917,44.771820 58.537506,41.959785
z"/>
<path fill="#18464E" opacity="1.000000" stroke="none"
	d="
M48.667950,155.959442
	C48.996914,156.781021 48.995613,157.523178 48.993214,158.636566
	C48.383392,158.214401 47.774673,157.421036 47.081791,156.331223
	C47.444313,155.983200 47.890999,155.931610 48.667950,155.959442
z"/>
<path fill="#205861" opacity="1.000000" stroke="none"
	d="
M157.016510,62.175011
	C158.084900,62.133244 159.153275,62.091480 160.622528,62.421291
	C161.033127,63.204800 161.042862,63.616730 161.052612,64.028671
	C160.203384,65.222252 159.354156,66.415840 157.904449,67.878296
	C151.144424,70.273872 151.166260,75.503639 151.026398,80.652237
	C149.360672,80.686760 147.694931,80.721291 145.834656,80.420753
	C146.620361,72.905724 150.708160,67.721428 156.265076,63.459179
	C156.629486,63.179668 156.771210,62.609818 157.016510,62.175011
z"/>
<path fill="#1F5660" opacity="1.000000" stroke="none"
	d="
M164.628815,59.908592
	C165.383286,53.913998 166.434082,47.777870 167.675964,41.305832
	C171.636963,47.011803 170.385513,55.007908 164.628815,59.908592
z"/>
<path fill="#1C4E57" opacity="1.000000" stroke="none"
	d="
M151.256744,80.765289
	C151.166260,75.503639 151.144424,70.273872 157.655304,68.076836
	C158.006638,68.006500 158.010651,68.505043 157.748535,68.957817
	C156.329575,71.279312 155.172729,73.148033 154.015869,75.016754
	C154.015411,75.762123 154.014954,76.507484 153.818665,77.866791
	C153.067444,79.348892 152.512070,80.217064 151.956696,81.085236
	C151.800140,81.016266 151.643600,80.947296 151.256744,80.765289
z"/>
<path fill="#1A4B53" opacity="1.000000" stroke="none"
	d="
M151.941650,81.477463
	C152.512070,80.217064 153.067444,79.348892 153.816895,78.239471
	C154.335892,80.063370 154.660828,82.128502 154.984512,84.601273
	C154.222855,85.006714 153.462448,85.004524 152.321564,85.002625
	C151.936264,83.958496 151.931442,82.914093 151.941650,81.477463
z"/>
<path fill="#1A4B53" opacity="1.000000" stroke="none"
	d="
M154.300629,74.844032
	C155.172729,73.148033 156.329575,71.279312 157.748428,69.207092
	C156.868744,70.892838 155.727066,72.782074 154.300629,74.844032
z"/>
<path fill="#1C4E57" opacity="1.000000" stroke="none"
	d="
M161.285095,63.860168
	C161.042862,63.616730 161.033127,63.204800 161.019348,62.484013
	C161.448990,62.118919 161.882660,62.062679 162.642609,61.969582
	C162.485092,62.519039 162.001328,63.105354 161.285095,63.860168
z"/>
<path fill="#205961" opacity="1.000000" stroke="none"
	d="
M134.022568,107.124191
	C136.724823,107.060349 139.427063,106.996498 142.571869,107.024094
	C139.896301,112.425400 134.252762,112.547653 129.185883,113.720253
	C125.481636,114.577515 121.691605,115.066414 117.937157,115.703941
	C109.807198,117.084465 104.647171,122.134193 101.500763,129.390671
	C99.459305,134.098846 98.220726,139.183212 95.908165,143.736267
	C94.255661,146.989746 91.417534,149.641022 88.768204,152.669571
	C88.826256,150.422638 89.224548,148.067139 90.088638,145.208588
	C92.507507,140.968307 94.935913,137.397675 96.316315,133.459702
	C99.345772,124.817383 103.390739,116.996407 112.440979,113.624313
	C117.377174,111.785103 122.845932,111.421745 127.991577,110.075752
	C130.114029,109.520561 132.018799,108.133110 134.022568,107.124191
z"/>
<path fill="#1A4B53" opacity="1.000000" stroke="none"
	d="
M147.171051,106.870453
	C147.191360,106.155327 147.563583,105.386711 148.035110,104.310158
	C149.206406,103.720924 150.278366,103.439636 151.672913,103.078094
	C150.504654,104.270882 149.013794,105.543922 147.171051,106.870453
z"/>
<path fill="#FCFEFF" opacity="1.000000" stroke="none"
	d="
M52.880775,135.960983
	C57.626518,109.137100 62.200371,82.720032 67.071930,56.357975
	C68.004837,51.309643 68.161400,46.885056 64.435410,42.914829
	C63.725163,42.158024 63.493046,40.952507 62.807716,39.440964
	C96.701714,39.440964 130.047531,39.440964 164.077637,39.440964
	C163.022873,45.144035 162.270309,50.559078 160.842896,55.789974
	C160.559113,56.829952 157.695648,57.722977 156.013367,57.737942
	C139.693008,57.883091 123.367455,58.011654 107.051384,57.710766
	C102.368912,57.624416 100.654373,59.163895 100.128593,63.659836
	C99.342743,70.379601 97.949471,77.028328 96.680672,84.495407
	C113.973297,84.495407 130.531464,84.495407 147.890793,84.495407
	C146.834488,90.466965 146.162674,95.697983 144.820175,100.750786
	C144.520279,101.879494 141.874817,103.049103 140.294586,103.069572
	C126.306946,103.250771 112.313309,103.329521 98.327721,103.082710
	C94.308044,103.011772 92.846893,104.375633 92.232101,108.223907
	C90.157082,121.212425 87.646500,134.131241 85.558861,147.117935
	C84.983330,150.698151 83.803764,152.230225 79.885796,152.114151
	C70.269119,151.829300 60.638325,152.021011 50.078823,152.021011
	C51.065609,146.377365 51.939022,141.382156 52.880775,135.960983
z"/>
<path fill="#2B727B" opacity="1.000000" stroke="none"
	d="
M48.281738,139.679749
	C47.495838,137.211395 46.069004,134.291214 46.432835,131.614426
	C48.398540,117.152199 50.789856,102.747414 53.070366,88.328514
	C54.728466,77.844894 56.288712,67.341644 58.221420,56.908054
	C58.830433,53.620384 60.504429,50.529991 61.996960,47.153114
	C62.809147,48.931919 64.030327,51.029999 63.714691,52.863514
	C58.748951,81.709190 53.585381,110.520813 48.281738,139.679749
z"/>
<path fill="#276A73" opacity="1.000000" stroke="none"
	d="
M156.063629,35.232399
	C150.920624,35.310074 145.777679,35.450146 140.634598,35.454704
	C117.355614,35.475349 94.076576,35.457706 70.558731,35.095490
	C73.353233,33.528111 76.374855,31.307028 79.421776,31.271748
	C101.827545,31.012314 124.240959,31.034037 146.644653,31.406906
	C149.804657,31.459497 152.924957,33.898163 156.063629,35.232399
z"/>
<path fill="#1E535B" opacity="1.000000" stroke="none"
	d="
M156.490494,35.309643
	C152.924957,33.898163 149.804657,31.459497 146.644653,31.406906
	C124.240959,31.034037 101.827545,31.012314 79.421776,31.271748
	C76.374855,31.307028 73.353233,33.528111 70.128761,34.978218
	C68.209641,35.284561 66.481651,35.349812 64.335068,35.301109
	C65.742561,33.632404 67.347267,31.225801 69.436333,30.682884
	C75.664886,29.064171 82.058624,27.358681 88.432785,27.164783
	C104.412277,26.678698 120.425629,26.693611 136.406448,27.158619
	C142.967178,27.349522 149.540085,28.954901 155.979355,30.463636
	C158.146423,30.971386 159.917557,33.169003 161.978058,34.884079
	C160.363449,35.244888 158.640396,35.315884 156.490494,35.309643
z"/>
<path fill="#286C74" opacity="1.000000" stroke="none"
	d="
M133.559998,107.033569
	C132.018799,108.133110 130.114029,109.520561 127.991577,110.075752
	C122.845932,111.421745 117.377174,111.785103 112.440979,113.624313
	C103.390739,116.996407 99.345772,124.817383 96.316315,133.459702
	C94.935913,137.397675 92.507507,140.968307 90.237930,144.843536
	C90.949646,138.937057 91.977875,132.892563 93.398239,126.298035
	C97.399010,121.514145 100.792984,117.067795 104.696030,113.125435
	C107.071953,110.725571 110.232864,109.102852 113.041168,107.131042
	C119.726585,107.068344 126.411995,107.005646 133.559998,107.033569
z"/>
<path fill="#2D767E" opacity="1.000000" stroke="none"
	d="
M140.000504,61.821762
	C142.046677,61.887154 144.092834,61.952541 146.387299,62.365677
	C144.301559,64.203590 142.001709,65.751053 139.624176,67.168205
	C137.122559,68.659325 133.648636,69.612862 134.564377,73.453667
	C135.447952,77.159477 137.547653,80.107239 142.074402,80.084511
	C142.080338,80.277092 142.058197,80.661797 142.058197,80.661797
	C138.688538,80.682655 135.318878,80.703514 131.412109,80.338867
	C130.291046,78.965149 129.857025,77.839905 129.099152,77.010620
	C123.649406,71.047310 124.401154,68.541084 132.234695,65.739594
	C134.943848,64.770729 137.418655,63.146591 140.000504,61.821762
z"/>
<path fill="#317F86" opacity="1.000000" stroke="none"
	d="
M139.540024,61.745491
	C137.418655,63.146591 134.943848,64.770729 132.234695,65.739594
	C124.401154,68.541084 123.649406,71.047310 129.099152,77.010620
	C129.857025,77.839905 130.291046,78.965149 130.959167,80.273376
	C128.672180,80.627831 126.301003,80.662285 123.406181,80.317200
	C118.293228,70.759705 118.294495,70.760834 125.494133,62.686855
	C125.708435,62.446529 125.831139,62.124538 125.996552,61.840622
	C130.357544,61.783489 134.718552,61.726357 139.540024,61.745491
z"/>
<path fill="#33858D" opacity="1.000000" stroke="none"
	d="
M112.577950,107.046654
	C110.232864,109.102852 107.071953,110.725571 104.696030,113.125435
	C100.792984,117.067795 97.399010,121.514145 93.504456,125.906921
	C94.053520,121.204262 94.907196,116.345772 95.716805,111.479950
	C96.241394,108.327179 98.162682,107.026001 101.241692,107.040375
	C104.865837,107.057304 108.490364,106.991943 112.577950,107.046654
z"/>
<path fill="#296E75" opacity="1.000000" stroke="none"
	d="
M142.068466,79.891930
	C137.547653,80.107239 135.447952,77.159477 134.564377,73.453667
	C133.648636,69.612862 137.122559,68.659325 139.624176,67.168205
	C142.001709,65.751053 144.301559,64.203590 146.821625,62.444717
	C148.400284,62.138935 149.792908,62.101868 151.449890,62.414494
	C150.789810,63.677776 150.024673,64.939453 148.914612,65.447510
	C142.519211,68.374573 140.321915,73.167686 142.068466,79.891930
z"/>
<path fill="#25636B" opacity="1.000000" stroke="none"
	d="
M142.074402,80.084511
	C140.321915,73.167686 142.519211,68.374573 148.914612,65.447510
	C150.024673,64.939453 150.789810,63.677776 151.864197,62.473259
	C153.405807,62.139126 154.797501,62.095917 156.602844,62.113861
	C156.771210,62.609818 156.629486,63.179668 156.265076,63.459179
	C150.708160,67.721428 146.620361,72.905724 145.424377,80.343887
	C144.420776,80.656570 143.632935,80.711052 142.451645,80.713669
	C142.058197,80.661797 142.080338,80.277092 142.074402,80.084511
z"/>
<path fill="#34878F" opacity="1.000000" stroke="none"
	d="
M125.555161,61.775192
	C125.831139,62.124538 125.708435,62.446529 125.494133,62.686855
	C118.294495,70.760834 118.293228,70.759705 122.966431,80.255676
	C121.337349,80.613182 119.624382,80.652679 117.436966,80.284729
	C113.670708,73.665741 113.507149,67.632584 117.989677,61.864365
	C120.364380,61.812836 122.739082,61.761303 125.555161,61.775192
z"/>
<path fill="#41A3B0" opacity="1.000000" stroke="none"
	d="
M108.103462,80.615105
	C102.500076,80.600983 101.608047,79.705635 102.266350,74.406471
	C102.610672,71.634834 102.747429,68.708954 103.800735,66.197868
	C104.533775,64.450287 106.666313,63.289730 108.471466,62.237999
	C105.470070,68.497292 106.623581,74.550163 108.103462,80.615105
z"/>
<path fill="#3D99A0" opacity="1.000000" stroke="none"
	d="
M108.513046,80.660263
	C106.623581,74.550163 105.470070,68.497292 108.864517,62.241219
	C110.031609,61.848656 111.103462,61.823944 112.510437,62.215950
	C109.524918,68.659119 110.256470,74.642029 113.038620,80.602921
	C111.666626,80.637085 110.294624,80.671249 108.513046,80.660263
z"/>
<path fill="#25636B" opacity="1.000000" stroke="none"
	d="
M79.549019,155.971222
	C75.382179,161.156860 62.820442,161.490555 57.157612,156.362122
	C64.357643,155.995209 71.722809,155.935501 79.549019,155.971222
z"/>
<path fill="#399097" opacity="1.000000" stroke="none"
	d="
M113.439728,80.652580
	C110.256470,74.642029 109.524918,68.659119 112.910675,62.254517
	C114.369781,61.839386 115.763756,61.802418 117.573708,61.814903
	C113.507149,67.632584 113.670708,73.665741 117.011703,80.228256
	C115.987549,80.620224 114.914192,80.661232 113.439728,80.652580
z"/>
</svg>
